<mxfile host="app.diagrams.net" modified="2021-12-28T15:43:15.930Z" agent="5.0 (X11; Linux x86_64) AppleWebKit/537.36 (KHTML, like Gecko) Chrome/96.0.4664.110 Safari/537.36" etag="-4hyIHvs40rVDOLor-jj" version="16.1.0" type="github">
  <diagram name="Page-1" id="929967ad-93f9-6ef4-fab6-5d389245f69c">
    <mxGraphModel dx="1085" dy="619" grid="1" gridSize="10" guides="1" tooltips="1" connect="1" arrows="1" fold="1" page="1" pageScale="1.5" pageWidth="1100" pageHeight="850" background="none" math="0" shadow="0">
      <root>
        <mxCell id="0" style=";html=1;" />
        <mxCell id="1" style=";html=1;" parent="0" />
        <mxCell id="Ed7nsnH9rYDAnsbSHyD--5" style="edgeStyle=none;rounded=0;orthogonalLoop=1;jettySize=auto;html=1;exitX=0;exitY=0.5;exitDx=0;exitDy=0;exitPerimeter=0;endArrow=none;endFill=0;" edge="1" parent="1" source="Ed7nsnH9rYDAnsbSHyD--3" target="Ed7nsnH9rYDAnsbSHyD--4">
          <mxGeometry relative="1" as="geometry" />
        </mxCell>
        <mxCell id="Ed7nsnH9rYDAnsbSHyD--10" value="" style="group" vertex="1" connectable="0" parent="1">
          <mxGeometry x="821.25" y="440" width="97.5" height="97" as="geometry" />
        </mxCell>
        <mxCell id="Ed7nsnH9rYDAnsbSHyD--4" value="" style="rounded=1;whiteSpace=wrap;html=1;strokeWidth=2;fillWeight=4;hachureGap=8;hachureAngle=45;fillColor=#1ba1e2;sketch=1;" vertex="1" parent="Ed7nsnH9rYDAnsbSHyD--10">
          <mxGeometry y="37" width="97.5" height="60" as="geometry" />
        </mxCell>
        <mxCell id="Ed7nsnH9rYDAnsbSHyD--9" value="&lt;font size=&quot;1&quot;&gt;&lt;b style=&quot;font-size: 18px&quot;&gt;Arduino&lt;/b&gt;&lt;/font&gt;" style="text;html=1;resizable=0;autosize=1;align=center;verticalAlign=middle;points=[];fillColor=none;strokeColor=none;rounded=0;" vertex="1" parent="Ed7nsnH9rYDAnsbSHyD--10">
          <mxGeometry x="8.75" width="80" height="20" as="geometry" />
        </mxCell>
        <mxCell id="Ed7nsnH9rYDAnsbSHyD--12" value="" style="group" vertex="1" connectable="0" parent="1">
          <mxGeometry x="970" y="445" width="350" height="92" as="geometry" />
        </mxCell>
        <mxCell id="Ed7nsnH9rYDAnsbSHyD--1" value="M" style="verticalLabelPosition=middle;shadow=0;dashed=0;align=center;html=1;verticalAlign=middle;strokeWidth=1;shape=ellipse;aspect=fixed;fontSize=35;" vertex="1" parent="Ed7nsnH9rYDAnsbSHyD--12">
          <mxGeometry x="290" y="32" width="60" height="60" as="geometry" />
        </mxCell>
        <mxCell id="Ed7nsnH9rYDAnsbSHyD--7" style="rounded=0;orthogonalLoop=1;jettySize=auto;html=1;exitX=1;exitY=0;exitDx=0;exitDy=0;exitPerimeter=0;entryX=0;entryY=0.5;entryDx=0;entryDy=0;endArrow=none;endFill=0;" edge="1" parent="Ed7nsnH9rYDAnsbSHyD--12" source="Ed7nsnH9rYDAnsbSHyD--2" target="Ed7nsnH9rYDAnsbSHyD--1">
          <mxGeometry relative="1" as="geometry" />
        </mxCell>
        <mxCell id="Ed7nsnH9rYDAnsbSHyD--8" style="edgeStyle=none;rounded=0;orthogonalLoop=1;jettySize=auto;html=1;exitX=1;exitY=1;exitDx=0;exitDy=0;exitPerimeter=0;endArrow=none;endFill=0;entryX=0;entryY=0.5;entryDx=0;entryDy=0;" edge="1" parent="Ed7nsnH9rYDAnsbSHyD--12" source="Ed7nsnH9rYDAnsbSHyD--2" target="Ed7nsnH9rYDAnsbSHyD--1">
          <mxGeometry relative="1" as="geometry">
            <mxPoint x="320" y="95" as="targetPoint" />
          </mxGeometry>
        </mxCell>
        <mxCell id="Ed7nsnH9rYDAnsbSHyD--2" value="" style="pointerEvents=1;verticalLabelPosition=bottom;shadow=0;dashed=0;align=center;html=1;verticalAlign=top;shape=mxgraph.electrical.electro-mechanical.two_way_contact;" vertex="1" parent="Ed7nsnH9rYDAnsbSHyD--12">
          <mxGeometry x="80" y="47" width="160" height="30" as="geometry" />
        </mxCell>
        <mxCell id="Ed7nsnH9rYDAnsbSHyD--6" style="edgeStyle=none;rounded=0;orthogonalLoop=1;jettySize=auto;html=1;exitX=1;exitY=0.5;exitDx=0;exitDy=0;exitPerimeter=0;entryX=0;entryY=0.5;entryDx=0;entryDy=0;entryPerimeter=0;endArrow=none;endFill=0;" edge="1" parent="Ed7nsnH9rYDAnsbSHyD--12" source="Ed7nsnH9rYDAnsbSHyD--3" target="Ed7nsnH9rYDAnsbSHyD--2">
          <mxGeometry relative="1" as="geometry" />
        </mxCell>
        <mxCell id="Ed7nsnH9rYDAnsbSHyD--3" value="" style="pointerEvents=1;verticalLabelPosition=bottom;shadow=0;dashed=0;align=center;html=1;verticalAlign=top;shape=mxgraph.electrical.electro-mechanical.relay_contacts;" vertex="1" parent="Ed7nsnH9rYDAnsbSHyD--12">
          <mxGeometry y="50" width="60" height="24" as="geometry" />
        </mxCell>
        <mxCell id="Ed7nsnH9rYDAnsbSHyD--11" value="Interruptor Open/Close" style="text;html=1;resizable=0;autosize=1;align=center;verticalAlign=middle;points=[];fillColor=none;strokeColor=none;rounded=0;fontSize=18;" vertex="1" parent="Ed7nsnH9rYDAnsbSHyD--12">
          <mxGeometry x="40" width="200" height="30" as="geometry" />
        </mxCell>
        <mxCell id="Ed7nsnH9rYDAnsbSHyD--19" style="edgeStyle=orthogonalEdgeStyle;rounded=0;orthogonalLoop=1;jettySize=auto;html=1;exitX=0.96;exitY=0.7;exitDx=0;exitDy=0;exitPerimeter=0;fontSize=18;endArrow=none;endFill=0;entryX=0;entryY=0.5;entryDx=0;entryDy=0;" edge="1" parent="1" source="Ed7nsnH9rYDAnsbSHyD--14" target="Ed7nsnH9rYDAnsbSHyD--4">
          <mxGeometry relative="1" as="geometry">
            <mxPoint x="790" y="510" as="targetPoint" />
          </mxGeometry>
        </mxCell>
        <mxCell id="Ed7nsnH9rYDAnsbSHyD--14" value="LAN" style="ellipse;shape=cloud;whiteSpace=wrap;html=1;fontSize=18;" vertex="1" parent="1">
          <mxGeometry x="630" y="310" width="120" height="80" as="geometry" />
        </mxCell>
      </root>
    </mxGraphModel>
  </diagram>
</mxfile>
